<svg width="720" height="720" viewBox="0 0 720 720" fill="none" xmlns="http://www.w3.org/2000/svg">
<rect x="135" y="237" width="45" height="45" fill="#4F4F4F"/>
<rect x="135" y="282" width="45" height="45" fill="#4F4F4F"/>
<rect x="135" y="327" width="45" height="45" fill="#4F4F4F"/>
<rect x="135" y="372" width="45" height="45" fill="#4F4F4F"/>
<rect x="135" y="417" width="45" height="45" fill="#4F4F4F"/>
<rect x="135" y="462" width="45" height="45" fill="#4F4F4F"/>
<rect x="135" y="507" width="45" height="45" fill="#4F4F4F"/>
<rect width="45" height="45" transform="matrix(-1 0 0 1 225 552)" fill="#4F4F4F"/>
<rect width="45" height="45" transform="matrix(-1 0 0 1 270 597)" fill="#4F4F4F"/>
<rect width="45" height="45" transform="matrix(-1 0 0 1 315 597)" fill="#4F4F4F"/>
<rect width="45" height="45" transform="matrix(-1 0 0 1 360 552)" fill="#4F4F4F"/>
<rect width="45" height="45" transform="matrix(-1 0 0 1 405 552)" fill="#4F4F4F"/>
<rect x="405" y="507" width="45" height="45" fill="#4F4F4F"/>
<rect x="450" y="507" width="45" height="45" fill="#4F4F4F"/>
<rect x="495" y="462" width="45" height="45" fill="#4F4F4F"/>
<rect x="540" y="417" width="45" height="45" fill="#4F4F4F"/>
<rect x="540" y="372" width="45" height="45" fill="#4F4F4F"/>
<rect x="540" y="327" width="45" height="45" fill="#4F4F4F"/>
<rect x="495" y="282" width="45" height="45" fill="#4F4F4F"/>
<rect x="450" y="237" width="45" height="45" fill="#4F4F4F"/>
<rect x="405" y="237" width="45" height="45" fill="#4F4F4F"/>
<rect x="360" y="79" width="45" height="45" fill="#4F4F4F"/>
<rect x="405" y="124" width="45" height="45" fill="#4F4F4F"/>
<rect x="450" y="124" width="45" height="45" fill="#4F4F4F"/>
<rect x="225" y="372" width="45" height="45" fill="#4F4F4F"/>
<rect x="225" y="327" width="45" height="45" fill="#4F4F4F"/>
<rect x="360" y="372" width="45" height="45" fill="#4F4F4F"/>
<rect x="360" y="327" width="45" height="45" fill="#4F4F4F"/>
<rect x="495" y="169" width="45" height="45" fill="#4F4F4F"/>
<rect x="540" y="169" width="45" height="45" fill="#4F4F4F"/>
<rect x="360" y="192" width="45" height="45" fill="#4F4F4F"/>
<rect x="315" y="192" width="45" height="45" fill="#4F4F4F"/>
<rect x="270" y="147" width="45" height="45" fill="#4F4F4F"/>
<rect x="225" y="147" width="45" height="45" fill="#4F4F4F"/>
<rect x="180" y="192" width="45" height="45" fill="#4F4F4F"/>
</svg>
