<svg width="630" height="630" viewBox="0 0 630 630" fill="none" xmlns="http://www.w3.org/2000/svg">
<path d="M360 0H405V45H360V0Z" fill="#4F4F4F"/>
<path d="M495 90H405V45H495V90Z" fill="#4F4F4F"/>
<path d="M495 90H585V135H495V90Z" fill="#4F4F4F"/>
<path fill-rule="evenodd" clip-rule="evenodd" d="M225 270H180V315H135V360H180V405H225V360H270V315H225V270ZM225 315V360H180V315H225Z" fill="#4F4F4F"/>
<path d="M360 270H315V315H360V360H315V405H360V360H405V405H450V360H405V315H450V270H405V315H360V270Z" fill="#4F4F4F"/>
<path fill-rule="evenodd" clip-rule="evenodd" d="M90 135H45V540H90V585H135V630H225V585H315V540H405V495H495V450H540V405H585V270H540V225H495V180H405V135H315V90H225V45H135V90H90V135ZM90 135H135V90H225V135H315V180H405V225H495V270H540V405H495V450H405V495H315V540H225V585H135V540H90V135Z" fill="#4F4F4F"/>
</svg>
