<svg width="823" height="822" viewBox="0 0 823 822" fill="none" xmlns="http://www.w3.org/2000/svg">
<path fill-rule="evenodd" clip-rule="evenodd" d="M106.761 252.929C92.8983 215.541 89.1085 136.116 122.419 102.806C147.44 111.564 190.086 142.491 219.991 169.851C221.568 169.226 223.155 168.613 224.751 168.012C260.076 154.189 297.961 147.278 338.405 147.278C378.85 147.278 416.734 154.189 452.059 168.012C456.101 169.593 460.082 171.245 464.003 172.968C493.995 144.886 538.968 111.899 564.944 102.806C601.39 139.251 593.423 230.9 576.443 262.295C587.842 278.066 597.576 295.274 605.646 313.919C621.005 347.708 628.684 385.081 628.684 426.038C628.684 445.492 626.38 464.434 621.773 482.865C617.677 501.295 611.278 518.702 602.574 535.084C593.871 551.467 582.608 566.314 568.785 579.624C554.963 592.423 538.836 602.918 520.406 611.11V612.646H672.456V704.798H343.013C300.52 704.798 261.1 698.654 224.751 686.367C188.914 673.568 157.941 655.138 131.831 631.076C105.721 607.014 85.243 577.833 70.3963 543.532C55.5496 509.23 48.1262 470.066 48.1262 426.038C48.1262 385.081 55.5496 347.452 70.3963 313.151C80.288 291.06 92.4095 270.986 106.761 252.929ZM172.531 426.038C172.531 449.588 176.883 471.602 185.586 492.08C194.29 512.558 206.065 530.477 220.911 545.835C236.27 560.682 253.932 572.457 273.899 581.16C293.865 589.864 315.367 594.215 338.405 594.215C361.443 594.215 382.945 589.864 402.912 581.16C422.878 572.457 440.284 560.682 455.131 545.835C470.49 530.477 482.521 512.558 491.224 492.08C499.927 471.602 504.279 449.588 504.279 426.038C504.279 402.488 499.927 380.474 491.224 359.995C482.521 339.517 470.49 321.855 455.131 307.008C440.284 291.649 422.878 279.618 402.912 270.915C382.945 262.212 361.443 257.86 338.405 257.86C315.367 257.86 293.865 262.212 273.899 270.915C253.932 279.618 236.27 291.649 220.911 307.008C206.065 321.855 194.29 339.517 185.586 359.995C176.883 380.474 172.531 402.488 172.531 426.038Z" fill="white"/>
<circle cx="778.117" cy="661.117" r="44.1165" fill="white"/>
</svg>
