<svg width="720" height="720" viewBox="0 0 720 720" fill="none" xmlns="http://www.w3.org/2000/svg">
<rect x="135" y="236" width="45" height="45" fill="#4F4F4F"/>
<rect x="135" y="281" width="45" height="45" fill="#4F4F4F"/>
<rect x="135" y="326" width="45" height="45" fill="#4F4F4F"/>
<rect x="135" y="371" width="45" height="45" fill="#4F4F4F"/>
<rect x="135" y="416" width="45" height="45" fill="#4F4F4F"/>
<rect x="135" y="461" width="45" height="45" fill="#4F4F4F"/>
<rect x="135" y="506" width="45" height="45" fill="#4F4F4F"/>
<rect width="45" height="45" transform="matrix(-1 0 0 1 225 551)" fill="#4F4F4F"/>
<rect width="45" height="45" transform="matrix(-1 0 0 1 270 596)" fill="#4F4F4F"/>
<rect width="45" height="45" transform="matrix(-1 0 0 1 315 596)" fill="#4F4F4F"/>
<rect width="45" height="45" transform="matrix(-1 0 0 1 360 551)" fill="#4F4F4F"/>
<rect width="45" height="45" transform="matrix(-1 0 0 1 405 551)" fill="#4F4F4F"/>
<rect x="405" y="506" width="45" height="45" fill="#4F4F4F"/>
<rect x="450" y="506" width="45" height="45" fill="#4F4F4F"/>
<rect x="495" y="461" width="45" height="45" fill="#4F4F4F"/>
<rect x="540" y="416" width="45" height="45" fill="#4F4F4F"/>
<rect x="540" y="371" width="45" height="45" fill="#4F4F4F"/>
<rect x="540" y="326" width="45" height="45" fill="#4F4F4F"/>
<rect x="495" y="281" width="45" height="45" fill="#4F4F4F"/>
<rect x="450" y="236" width="45" height="45" fill="#4F4F4F"/>
<rect x="405" y="236" width="45" height="45" fill="#4F4F4F"/>
<rect x="360" y="78" width="45" height="45" fill="#4F4F4F"/>
<rect x="405" y="123" width="45" height="45" fill="#4F4F4F"/>
<rect x="450" y="123" width="45" height="45" fill="#4F4F4F"/>
<rect x="270" y="326" width="45" height="45" fill="#4F4F4F"/>
<rect x="315" y="416" width="45" height="45" fill="#4F4F4F"/>
<rect x="270" y="416" width="45" height="45" fill="#4F4F4F"/>
<rect x="360" y="416" width="45" height="45" fill="#4F4F4F"/>
<rect x="225" y="281" width="45" height="45" fill="#4F4F4F"/>
<rect x="180" y="326" width="45" height="45" fill="#4F4F4F"/>
<rect x="405" y="281" width="45" height="45" fill="#4F4F4F"/>
<rect x="360" y="326" width="45" height="45" fill="#4F4F4F"/>
<rect x="450" y="326" width="45" height="45" fill="#4F4F4F"/>
<rect x="495" y="168" width="45" height="45" fill="#4F4F4F"/>
<rect x="540" y="168" width="45" height="45" fill="#4F4F4F"/>
<rect x="360" y="191" width="45" height="45" fill="#4F4F4F"/>
<rect x="315" y="191" width="45" height="45" fill="#4F4F4F"/>
<rect x="270" y="146" width="45" height="45" fill="#4F4F4F"/>
<rect x="225" y="146" width="45" height="45" fill="#4F4F4F"/>
<rect x="180" y="191" width="45" height="45" fill="#4F4F4F"/>
</svg>
