<svg width="2580" height="360" viewBox="0 0 2580 360" fill="none" xmlns="http://www.w3.org/2000/svg">
<rect y="90" width="45" height="45" fill="#4F4F4F"/>
<rect x="45" y="90" width="45" height="45" fill="#4F4F4F"/>
<rect x="90" y="90" width="45" height="45" fill="#4F4F4F"/>
<rect x="185" y="45" width="45" height="45" fill="#4F4F4F"/>
<rect x="140" y="45" width="45" height="45" fill="#4F4F4F"/>
<rect x="185" y="90" width="45" height="45" fill="#4F4F4F"/>
<rect x="185" y="135" width="45" height="45" fill="#4F4F4F"/>
<rect x="185" y="180" width="45" height="45" fill="#4F4F4F"/>
<rect x="230" y="135" width="45" height="45" fill="#4F4F4F"/>
<rect x="140" y="135" width="45" height="45" fill="#4F4F4F"/>
<rect x="275" y="180" width="45" height="45" fill="#4F4F4F"/>
<rect x="185" y="225" width="45" height="45" fill="#4F4F4F"/>
<rect x="185" y="270" width="45" height="45" fill="#4F4F4F"/>
<rect x="230" y="45" width="45" height="45" fill="#4F4F4F"/>
<rect x="447" y="45" width="45" height="45" fill="#4F4F4F"/>
<rect x="807" y="45" width="45" height="45" fill="#4F4F4F"/>
<rect x="1195" y="90" width="45" height="45" fill="#4F4F4F"/>
<rect x="1550" y="45" width="45" height="45" fill="#4F4F4F"/>
<rect x="1595" y="90" width="45" height="45" fill="#4F4F4F"/>
<rect x="1550" y="315" width="45" height="45" fill="#4F4F4F"/>
<rect x="492" y="45" width="45" height="45" fill="#4F4F4F"/>
<rect x="852" y="45" width="45" height="45" fill="#4F4F4F"/>
<rect x="1240" y="90" width="45" height="45" fill="#4F4F4F"/>
<rect x="1595" y="45" width="45" height="45" fill="#4F4F4F"/>
<rect x="1595" y="135" width="45" height="45" fill="#4F4F4F"/>
<rect x="1550" y="180" width="45" height="45" fill="#4F4F4F"/>
<rect x="1595" y="225" width="45" height="45" fill="#4F4F4F"/>
<rect x="1640" y="225" width="45" height="45" fill="#4F4F4F"/>
<rect x="1595" y="315" width="45" height="45" fill="#4F4F4F"/>
<rect x="1240" y="135" width="45" height="45" fill="#4F4F4F"/>
<rect x="1195" y="180" width="45" height="45" fill="#4F4F4F"/>
<rect x="1330" y="270" width="45" height="45" fill="#4F4F4F"/>
<rect x="1370" y="270" width="45" height="45" fill="#4F4F4F"/>
<rect x="1330" y="135" width="45" height="45" fill="#4F4F4F"/>
<rect x="1375" y="180" width="45" height="45" fill="#4F4F4F"/>
<rect x="1330" y="180" width="45" height="45" fill="#4F4F4F"/>
<rect x="1285" y="225" width="45" height="45" fill="#4F4F4F"/>
<rect x="1240" y="270" width="45" height="45" fill="#4F4F4F"/>
<rect x="1195" y="270" width="45" height="45" fill="#4F4F4F"/>
<rect x="492" y="135" width="45" height="45" fill="#4F4F4F"/>
<rect x="492" y="180" width="45" height="45" fill="#4F4F4F"/>
<rect x="537" y="180" width="45" height="45" fill="#4F4F4F"/>
<rect x="537" y="270" width="45" height="45" fill="#4F4F4F"/>
<rect x="537" y="225" width="45" height="45" fill="#4F4F4F"/>
<rect x="537" y="315" width="45" height="45" fill="#4F4F4F"/>
<rect x="492" y="270" width="45" height="45" fill="#4F4F4F"/>
<rect x="447" y="270" width="45" height="45" fill="#4F4F4F"/>
<rect x="582" y="270" width="45" height="45" fill="#4F4F4F"/>
<rect x="627" y="270" width="45" height="45" fill="#4F4F4F"/>
<rect x="582" y="180" width="45" height="45" fill="#4F4F4F"/>
<rect x="582" y="135" width="45" height="45" fill="#4F4F4F"/>
<rect x="807" y="135" width="45" height="45" fill="#4F4F4F"/>
<rect x="854" y="90" width="45" height="45" fill="#4F4F4F"/>
<rect x="897" y="90" width="45" height="45" fill="#4F4F4F"/>
<rect x="942" y="90" width="45" height="45" fill="#4F4F4F"/>
<rect x="942" y="135" width="45" height="45" fill="#4F4F4F"/>
<rect x="852" y="180" width="45" height="45" fill="#4F4F4F"/>
<rect x="807" y="180" width="45" height="45" fill="#4F4F4F"/>
<rect x="762" y="180" width="45" height="45" fill="#4F4F4F"/>
<rect x="897" y="180" width="45" height="45" fill="#4F4F4F"/>
<rect x="987" y="180" width="45" height="45" fill="#4F4F4F"/>
<rect x="942" y="180" width="45" height="45" fill="#4F4F4F"/>
<rect x="807" y="225" width="45" height="45" fill="#4F4F4F"/>
<rect x="942" y="225" width="45" height="45" fill="#4F4F4F"/>
<rect x="807" y="270" width="45" height="45" fill="#4F4F4F"/>
<rect x="852" y="270" width="45" height="45" fill="#4F4F4F"/>
<rect x="897" y="270" width="45" height="45" fill="#4F4F4F"/>
<rect x="942" y="270" width="45" height="45" fill="#4F4F4F"/>
<rect x="942" y="315" width="45" height="45" fill="#4F4F4F"/>
<rect x="987" y="270" width="45" height="45" fill="#4F4F4F"/>
<rect x="492" width="45" height="45" fill="#4F4F4F"/>
<rect x="852" width="45" height="45" fill="#4F4F4F"/>
<rect x="582" width="45" height="45" fill="#4F4F4F"/>
<rect x="942" width="45" height="45" fill="#4F4F4F"/>
<rect x="1285" y="45" width="45" height="45" fill="#4F4F4F"/>
<rect x="537" y="45" width="45" height="45" fill="#4F4F4F"/>
<rect x="897" y="45" width="45" height="45" fill="#4F4F4F"/>
<rect x="1285" y="90" width="45" height="45" fill="#4F4F4F"/>
<rect x="1640" y="45" width="45" height="45" fill="#4F4F4F"/>
<rect x="2000" y="45" width="45" height="45" fill="#4F4F4F"/>
<rect x="2310" y="45" width="45" height="45" fill="#4F4F4F"/>
<rect x="2265" y="90" width="45" height="45" fill="#4F4F4F"/>
<rect x="2310" y="135" width="45" height="45" fill="#4F4F4F"/>
<rect x="2400" y="135" width="45" height="45" fill="#4F4F4F"/>
<rect x="2445" y="135" width="45" height="45" fill="#4F4F4F"/>
<rect x="2400" y="180" width="45" height="45" fill="#4F4F4F"/>
<rect x="2400" y="225" width="45" height="45" fill="#4F4F4F"/>
<rect x="2400" y="270" width="45" height="45" fill="#4F4F4F"/>
<rect x="2400" y="315" width="45" height="45" fill="#4F4F4F"/>
<rect x="2400" y="90" width="45" height="45" fill="#4F4F4F"/>
<rect x="2400" y="45" width="45" height="45" fill="#4F4F4F"/>
<rect x="2445" y="45" width="45" height="45" fill="#4F4F4F"/>
<rect x="2490" y="45" width="45" height="45" fill="#4F4F4F"/>
<rect x="2490" y="90" width="45" height="45" fill="#4F4F4F"/>
<rect x="2490" y="135" width="45" height="45" fill="#4F4F4F"/>
<rect x="2490" y="180" width="45" height="45" fill="#4F4F4F"/>
<rect x="2490" y="225" width="45" height="45" fill="#4F4F4F"/>
<rect x="2490" y="270" width="45" height="45" fill="#4F4F4F"/>
<rect x="2490" y="315" width="45" height="45" fill="#4F4F4F"/>
<rect x="2445" y="315" width="45" height="45" fill="#4F4F4F"/>
<rect x="2355" y="315" width="45" height="45" fill="#4F4F4F"/>
<rect x="2535" y="315" width="45" height="45" fill="#4F4F4F"/>
<rect x="2445" y="225" width="45" height="45" fill="#4F4F4F"/>
<rect x="2265" y="180" width="45" height="45" fill="#4F4F4F"/>
<rect x="2265" y="270" width="45" height="45" fill="#4F4F4F"/>
<rect x="2265" y="315" width="45" height="45" fill="#4F4F4F"/>
<rect x="2310" y="225" width="45" height="45" fill="#4F4F4F"/>
<rect x="2000" y="90" width="45" height="45" fill="#4F4F4F"/>
<rect x="2000" y="135" width="45" height="45" fill="#4F4F4F"/>
<rect x="2000" y="180" width="45" height="45" fill="#4F4F4F"/>
<rect x="2000" y="225" width="45" height="45" fill="#4F4F4F"/>
<rect x="2000" y="270" width="45" height="45" fill="#4F4F4F"/>
<rect x="1955" y="270" width="45" height="45" fill="#4F4F4F"/>
<rect x="1910" y="135" width="45" height="45" fill="#4F4F4F"/>
<rect width="45" height="45" transform="matrix(-1 0 0 1 2135 135)" fill="#4F4F4F"/>
<rect x="1865" y="180" width="45" height="45" fill="#4F4F4F"/>
<rect width="45" height="45" transform="matrix(-1 0 0 1 2180 180)" fill="#4F4F4F"/>
<rect x="1640" y="135" width="45" height="45" fill="#4F4F4F"/>
<rect x="1640" y="315" width="45" height="45" fill="#4F4F4F"/>
<rect x="582" y="45" width="45" height="45" fill="#4F4F4F"/>
<rect x="942" y="45" width="45" height="45" fill="#4F4F4F"/>
<rect x="1330" y="90" width="45" height="45" fill="#4F4F4F"/>
<rect x="1685" y="45" width="45" height="45" fill="#4F4F4F"/>
<rect x="1685" y="135" width="45" height="45" fill="#4F4F4F"/>
<rect x="1685" y="315" width="45" height="45" fill="#4F4F4F"/>
<rect x="627" y="45" width="45" height="45" fill="#4F4F4F"/>
<rect x="987" y="45" width="45" height="45" fill="#4F4F4F"/>
<rect x="1375" y="90" width="45" height="45" fill="#4F4F4F"/>
<rect x="1730" y="45" width="45" height="45" fill="#4F4F4F"/>
<rect x="1730" y="180" width="45" height="45" fill="#4F4F4F"/>
<rect x="1685" y="225" width="45" height="45" fill="#4F4F4F"/>
<rect x="1685" y="270" width="45" height="45" fill="#4F4F4F"/>
<rect x="1730" y="315" width="45" height="45" fill="#4F4F4F"/>
<rect x="45" y="45" width="45" height="45" fill="#4F4F4F"/>
<rect x="45" y="135" width="45" height="45" fill="#4F4F4F"/>
<rect x="45" y="180" width="45" height="45" fill="#4F4F4F"/>
<rect y="225" width="45" height="45" fill="#4F4F4F"/>
<rect x="90" y="180" width="45" height="45" fill="#4F4F4F"/>
</svg>
